# xmcd
#
# Track frame offsets:
#	150
#	12137
#	21373
#	34013
#	48867
#	61666
#	73529
#	86452
#	99352
#	110627
#	126166
#	134528
#	146126
#	170254
#	183377
#	202992
#	216966
#	232825
#	245844
#	263053
#	275921
#	290180
#	304209
#	317104
#
# Disc length: 4370 seconds
#
# Revision: 1
# Processed by: cddbd v1.5.2PL0 Copyright (c) Steve Scherf et al.
# Submitted via: audiograbber 1.83.01
#
DISCID=66111018
DTITLE=Various Artist - 40!!! Years Bear Family Records CD3
DYEAR=2015
DGENRE=Country
TTITLE0=chuck mead - big bear in the sky
TTITLE1=marcel riesco with the round-up boys - bear it in your heart
TTITLE2=rip masters - bear naked woman
TTITLE3=lynette and the longshots - barely here
TTITLE4=briana kidwell - i wanna visit my bear family
TTITLE5=carl casino and the aces - polar bear rock 'n' roll
TTITLE6=hurley and the blue dots - boogie woogie bear
TTITLE7=pete jamestone and amanda louisiana - bared my soul for rock and roll
TTITLE8=lynette and the longshots - grin and bear it
TTITLE9=lesley schatz and mike dunbar - bear cat
TTITLE10=paul würges - teddy bear
TTITLE11=gino and the lone gunmen - the bear
TTITLE12=kevin fennell - i play bear family music
TTITLE13=john paul keith - the bear
TTITLE14=swamp dogg with canned heat - did you ever see a bear do the boogie
TTITLE15=velvetone - fourty bears
TTITLE16=the hijackers - silver, bear and dung
TTITLE17=banana seats - don't be afraid of the bear
TTITLE18=roger arvidson - (i'll) bear it in mind
TTITLE19=fuzztones - be a caveman
TTITLE20=bror gunnar jansson - moan snake moan - pt. 
TTITLE21=the kennedys - johnny bear
TTITLE22=john sieger and phil lee - mr. dancin' bear
TTITLE23=pat todd and the rankoutsiders - somedays you eat the bear - somedays th
TTITLE23=e bear eats you
EXTD=
EXTT0=
EXTT1=
EXTT2=
EXTT3=
EXTT4=
EXTT5=
EXTT6=
EXTT7=
EXTT8=
EXTT9=
EXTT10=
EXTT11=
EXTT12=
EXTT13=
EXTT14=
EXTT15=
EXTT16=
EXTT17=
EXTT18=
EXTT19=
EXTT20=
EXTT21=
EXTT22=
EXTT23=
PLAYORDER=
